<?xml version="1.0" standalone="no"?>
<!DOCTYPE svg PUBLIC "-//W3C//DTD SVG 20010904//EN"
 "http://www.w3.org/TR/2001/REC-SVG-20010904/DTD/svg10.dtd">
<svg version="1.0" xmlns="http://www.w3.org/2000/svg"
 width="291.000000pt" height="80.000000pt" viewBox="0 0 291.000000 80.000000"
 preserveAspectRatio="xMidYMid meet">

<g transform="translate(0.000000,80.000000) scale(0.100000,-0.100000)"
fill="#000000" stroke="none">
<path d="M259 705 c-63 -20 -131 -83 -160 -147 -20 -45 -23 -70 -24 -158 0
-121 19 -177 83 -243 75 -77 220 -99 352 -54 l65 22 3 52 3 51 -58 -23 c-116
-47 -202 -42 -267 16 -51 44 -69 100 -64 201 4 101 26 150 81 186 34 23 51 27
106 26 39 -1 90 -10 125 -23 33 -11 63 -21 68 -21 4 0 8 22 8 50 0 48 -1 49
-37 60 -63 19 -231 22 -284 5z"/>
<path d="M620 706 c0 -2 41 -111 90 -243 50 -131 102 -269 116 -306 l26 -68
51 3 50 3 108 300 c60 165 109 303 109 307 0 5 -22 8 -48 8 l-48 0 -83 -230
c-46 -127 -85 -229 -87 -227 -2 2 -39 97 -83 213 -43 115 -82 217 -86 227 -6
13 -19 17 -61 17 -30 0 -54 -2 -54 -4z"/>
<path d="M1220 160 c0 -33 4 -60 10 -60 6 0 10 14 10 30 0 25 4 30 25 30 21 0
25 -5 25 -30 0 -16 5 -30 10 -30 6 0 10 27 10 60 0 33 -4 60 -10 60 -5 0 -10
-11 -10 -25 0 -20 -5 -25 -25 -25 -20 0 -25 5 -25 25 0 14 -4 25 -10 25 -6 0
-10 -27 -10 -60z"/>
<path d="M1358 209 c-26 -15 -25 -85 1 -99 29 -15 56 -12 74 8 48 53 -14 127
-75 91z m64 -24 c8 -19 8 -31 0 -50 -19 -42 -62 -25 -62 25 0 50 43 67 62 25z"/>
<path d="M1470 160 c0 -61 19 -86 21 -27 l1 32 11 -27 c6 -16 16 -28 23 -28 7
0 17 12 22 28 l10 27 1 -32 c2 -60 21 -34 21 27 0 71 -14 77 -38 19 l-18 -42
-12 42 c-20 64 -42 54 -42 -19z"/>
<path d="M1610 160 l0 -60 43 2 c36 1 38 2 10 5 -27 4 -33 9 -33 28 0 17 7 25
23 28 l22 4 -22 2 c-35 2 -31 39 5 44 22 3 20 4 -10 6 l-38 1 0 -60z"/>
<path d="M1700 160 c0 -33 4 -60 10 -60 6 0 10 11 10 25 0 14 4 25 8 25 5 0
15 -11 22 -25 7 -14 19 -25 27 -25 11 0 10 5 -2 24 -13 20 -14 29 -5 46 15 28
-3 50 -41 50 -29 0 -29 -1 -29 -60z m55 40 c7 -12 -12 -40 -26 -40 -5 0 -9 11
-9 25 0 25 23 35 35 15z"/>
<path d="M1817 202 c-22 -24 -21 -65 1 -85 39 -35 92 -10 92 43 0 54 -59 80
-93 42z m61 -4 c26 -26 8 -88 -25 -88 -23 0 -38 46 -25 75 13 27 31 32 50 13z"/>
<path d="M1990 160 c0 -61 19 -86 21 -27 l1 32 11 -27 c6 -16 16 -28 23 -28 7
0 17 12 22 28 l10 27 1 -32 c2 -60 21 -34 21 27 0 71 -14 77 -38 19 l-18 -42
-12 42 c-20 64 -42 54 -42 -19z"/>
<path d="M2141 169 c-11 -29 -21 -56 -21 -60 0 -17 19 -9 25 11 8 26 45 26 52
0 3 -11 11 -20 18 -20 10 0 8 15 -8 60 -12 33 -27 60 -33 60 -6 0 -21 -23 -33
-51z m39 -4 c0 -8 -4 -15 -10 -15 -5 0 -10 7 -10 15 0 8 5 15 10 15 6 0 10 -7
10 -15z"/>
<path d="M2250 160 c0 -33 4 -60 10 -60 6 0 10 17 10 37 l0 38 25 -38 c14 -20
30 -37 35 -37 6 0 10 27 10 60 0 66 -17 83 -22 23 l-3 -38 -23 38 c-13 20 -28
37 -33 37 -5 0 -9 -27 -9 -60z"/>
<path d="M2370 160 c0 -33 4 -60 10 -60 6 0 10 12 10 28 l1 27 20 -27 c26 -35
47 -37 25 -3 -13 20 -14 29 -5 44 18 28 4 51 -31 51 l-30 0 0 -60z m45 25 c0
-10 -6 -20 -12 -22 -8 -3 -13 5 -13 22 0 17 5 25 13 23 6 -3 12 -13 12 -23z"/>
<path d="M2470 160 c0 -33 4 -60 10 -60 6 0 10 27 10 60 0 33 -4 60 -10 60 -6
0 -10 -27 -10 -60z"/>
<path d="M2526 198 c-9 -12 -16 -29 -16 -38 0 -27 28 -57 57 -62 16 -3 37 -8
48 -12 19 -7 19 -7 2 7 -12 10 -14 17 -8 22 15 9 14 78 -1 93 -20 20 -65 14
-82 -10z m69 -38 c0 -39 -3 -45 -22 -48 -30 -4 -47 36 -33 74 7 19 16 25 33
22 19 -3 22 -9 22 -48z"/>
<path d="M2640 186 c0 -19 4 -47 10 -61 8 -22 15 -26 42 -23 33 3 33 4 36 61
2 33 -1 57 -7 57 -5 0 -11 -24 -13 -52 -2 -39 -7 -53 -18 -53 -11 0 -16 14
-18 53 -2 37 -7 52 -18 52 -9 0 -14 -11 -14 -34z"/>
<path d="M2760 160 l0 -60 43 2 c36 1 38 2 10 5 -27 4 -33 9 -33 28 0 17 7 25
23 28 l22 4 -22 2 c-35 2 -31 39 5 44 22 3 20 4 -10 6 l-38 1 0 -60z"/>
</g>
</svg>
